# xmcd
#
# Track frame offsets:
#	150
#	14742
#	29777
#	43767
#	59462
#	75422
#	99085
#	113480
#	130872
#	146627
#	162440
#	178012
#	194725
#	213122
#	229422
#	246277
#	258550
#	278182
#
# Disc length: 3980
#
# Revision: 1
# Processed by: cddbd v1.5.1PL0 Copyright (c) Steve Scherf et al.
# Submitted via: VisiTrax 2.9.5.180 - For more info visit www.synapsa.com
# Normalized: r0:DSETVAR1
#
DISCID=0a0f8a12
DTITLE=Various Artist - CDX 172 October 1997
DYEAR=1997
DGENRE=
TTITLE0=Deana Carter - Did I shave my legs for this
TTITLE1=Raybon Bros/Olivia Newton John - Falling
TTITLE2=Dixie Chicks - I can love you better
TTITLE3=Neal McCoy - If you can't be good (be good at it)
TTITLE4=Diamond Rio - Imagine that
TTITLE5=Trisha Yearwood/Garth Brooks - In another's eyes
TTITLE6=Lynns - Nights like these
TTITLE7=LeAnn Rimes - On the side of angels
TTITLE8=John Fogerty - Rambunctious Boy
TTITLE9=Kippi Brannon - The greatest love I've ever known
TTITLE10=Daryle Singletary - The note
TTITLE11=Kris Tyler - What a woman knows
TTITLE12=Michael Johnson/Alison Krauss - Whenever I call you friend
TTITLE13=Lee Ann Womack - You've got to talk to me
TTITLE14=Peregrine way - Make up my mind
TTITLE15=Jarrod Dukes - That's where it hurts
TTITLE16=Deana Carter - Did I shave my legs for this (Hybrid version)
TTITLE17=Deana Carter - Did I shave my legs for this (live)
EXTD=
EXTT0=
EXTT1=
EXTT2=
EXTT3=
EXTT4=
EXTT5=
EXTT6=
EXTT7=
EXTT8=
EXTT9=
EXTT10=
EXTT11=
EXTT12=
EXTT13=
EXTT14=
EXTT15=
EXTT16=
EXTT17=
PLAYORDER=
